<?xml version="1.0" standalone="no"?>
<!DOCTYPE svg PUBLIC "-//W3C//DTD SVG 20010904//EN"
 "http://www.w3.org/TR/2001/REC-SVG-20010904/DTD/svg10.dtd">
<svg version="1.0" xmlns="http://www.w3.org/2000/svg"
 width="582.000000pt" height="676.000000pt" viewBox="0 0 582.000000 676.000000"
 preserveAspectRatio="xMidYMid meet">

<g transform="translate(0.000000,676.000000) scale(0.100000,-0.100000)"
fill="#000000" stroke="none">
<path d="M1470 5911 l-1435 -828 -9 -1697 c-5 -971 -5 -1701 0 -1706 5 -5 654
-383 1441 -839 l1433 -831 1452 829 1453 828 -4 1174 c-2 646 -7 1414 -10
1708 l-6 534 -1430 824 c-786 454 -1434 827 -1440 828 -5 2 -656 -369 -1445
-824z m2674 -76 c674 -390 1226 -712 1226 -715 0 -3 -142 -88 -315 -188 l-315
-182 -460 270 -460 270 -547 -345 c-302 -190 -548 -350 -548 -355 0 -5 180
-122 400 -260 220 -138 401 -254 403 -258 1 -4 -133 -87 -298 -185 l-300 -177
-1235 697 c-679 384 -1235 700 -1235 703 0 8 2443 1439 2452 1437 4 -1 558
-321 1232 -712z m1507 -2974 l4 -1094 -295 -167 c-162 -92 -296 -167 -297
-166 -2 2 -43 2285 -43 2378 0 15 -24 6 -147 -56 l-148 -74 -10 -1232 -10
-1233 -310 -177 -310 -177 -10 1207 -10 1207 -175 -98 -175 -97 0 -1217 0
-1218 -310 -182 -310 -182 -3 1581 -2 1581 21 15 c12 8 585 348 1273 756
l1251 741 6 -501 c3 -276 8 -993 10 -1595z m-4161 1324 c685 -399 1249 -730
1254 -735 5 -5 5 -165 0 -378 l-9 -369 -955 562 -955 562 -9 -250 -9 -251 24
-16 c12 -8 446 -256 963 -551 l941 -536 -4 -674 c-2 -371 -7 -807 -10 -970
l-6 -296 -1246 726 c-685 399 -1256 733 -1268 741 l-21 15 2 376 3 377 965
-578 965 -578 6 72 c3 39 8 152 10 250 l4 179 -951 541 c-522 297 -960 548
-971 556 l-21 15 -7 989 -8 989 34 -20 c19 -12 594 -348 1279 -748z"/>
<path d="M2355 5489 c-308 -187 -560 -344 -560 -349 0 -5 62 -48 138 -95 l137
-85 558 340 c306 187 558 344 560 349 2 6 -263 183 -271 180 -1 0 -254 -153
-562 -340z"/>
</g>
</svg>
